<svg version="1.2" baseProfile="tiny" xmlns="http://www.w3.org/2000/svg" viewBox="-1077 923 256 256" xml:space="preserve"><path d="M-827.3 979.5s-2.2-13.1-5.2-17.1c-3.8-5.1-16.4-12.1-16.4-12.1-2.6 3.7 3.6-9.8 7.3-22.7 0 0-24.2 3.2-46.8 27.6-6.4 7-17.8 38.6-17.8 38.6l-44.7 20.5c-31.1 12.9-82.7 26.2-82.7 97.7v30.5c-2.5-1.7-15.7-12.7-15.5-29.9.1-13.6 1.9-27.5 3.6-39.9 3.1-22.7 5.5-47.1-3.7-57.6-4.2-4.8-10.2-7.3-17.7-7.3-4.9 0-8.9 4-8.9 8.9s4 8.9 8.9 8.9c2.2 0 3.6.4 4.3 1.2 3.8 4.4 1.5 28.1-.6 43.4-1.7 12.9-3.7 27.5-3.7 42.2 0 16.2 5.6 31.4 15.7 42.8 11.5 12.9 27.7 19.7 46.8 19.7h89.3c4.9 0 8.9-4 8.9-8.9s-4-8.9-8.9-8.9h-19.6l9.5-31.3c0-4.5-1-8.8-2.7-12.6-7.1-12.1-19.9-19.6-34-19.6-6.2 0-12 1.4-17.5 4.1l-2.9-5.8c6.4-3.2 13.2-4.8 20.4-4.8 16.8 0 32.3 9.2 40.3 24 0 0 33.1 50.7 36.4 57.9 0 .1.1.1.1.2.9 2.7 3.1 4.7 5.9 5.3.1 0 .2 0 .3.1.5.1.9.3 1.4.3h9.8c4.4 0 8.1-3.6 8.1-8.1 0-4.4-3.6-8.1-8.1-8.1h.2s-26.6-47.4-21.4-64.2c23.7-37.2 36.5-72.5 36.5-72.5 5.1-11.6 18.2-20.5 20-21.7 4-2.7 9.5-6.1 10-11.3.2-2.3-3.6-7.3-4.9-9.5z"/></svg>