<svg xmlns="http://www.w3.org/2000/svg" viewBox="0 0 512 512" style="enable-background:new 0 0 512 512" xml:space="preserve"><path style="fill:#6e6057" d="M412.718 342.549c-10.131-15.249-24.711-27.381-42.296-34.727-12.022-5.009-19.812-16.584-19.812-29.607 0-54.317-43.297-100.174-94.609-100.174s-94.609 45.857-94.609 100.174c0 13.023-7.791 24.598-19.812 29.607-35.282 14.581-58.101 48.863-58.101 87.263 0 68.007 70.122 113.976 132.562 86.706 12.69-5.565 26.38-8.348 39.959-8.348 13.579 0 27.27 2.783 39.959 8.348 62.329 27.27 132.562-18.588 132.562-86.706.001-19.144-5.676-37.398-15.803-52.536zM178.087 166.911c-30.684 0-55.652-24.968-55.652-55.652 0-25.843 19.501-89.043 55.652-89.043s55.652 63.201 55.652 89.043c0 30.685-24.968 55.652-55.652 55.652z"/><path style="fill:#615349" d="M333.913 166.911c-30.684 0-55.652-24.968-55.652-55.652 0-25.843 19.5-89.043 55.652-89.043s55.652 63.201 55.652 89.043c0 30.685-24.968 55.652-55.652 55.652z"/><path style="fill:#6e6057" d="M55.652 300.476C24.968 300.476 0 275.509 0 244.824c0-25.843 19.501-89.043 55.652-89.043s55.652 63.201 55.652 89.043c0 30.686-24.967 55.652-55.652 55.652z"/><path style="fill:#615349" d="M456.348 300.476c-30.684 0-55.652-24.968-55.652-55.652 0-25.843 19.5-89.043 55.652-89.043S512 218.981 512 244.824c0 30.686-24.968 55.652-55.652 55.652zM428.522 395.085c0 68.118-70.234 113.976-132.562 86.706-12.69-5.565-26.38-8.348-39.959-8.348V178.042c51.311 0 94.609 45.857 94.609 100.174 0 13.023 7.791 24.598 19.812 29.607 17.586 7.346 32.166 19.478 42.296 34.727 10.127 15.137 15.804 33.391 15.804 52.535z"/></svg>