<?xml version="1.0" encoding="iso-8859-1"?>
<!-- Generator: Adobe Illustrator 19.0.0, SVG Export Plug-In . SVG Version: 6.00 Build 0)  -->
<svg version="1.1" id="Layer_1" xmlns="http://www.w3.org/2000/svg" xmlns:xlink="http://www.w3.org/1999/xlink" x="0px" y="0px"
	 viewBox="0 0 512 512" style="enable-background:new 0 0 512 512;" xml:space="preserve">
<g>
	<path style="fill:#6E6057;" d="M412.718,342.549c-10.131-15.249-24.711-27.381-42.296-34.727
		c-12.022-5.009-19.812-16.584-19.812-29.607c0-54.317-43.297-100.174-94.609-100.174s-94.609,45.857-94.609,100.174
		c0,13.023-7.791,24.598-19.812,29.607c-35.282,14.581-58.101,48.863-58.101,87.263c0,68.007,70.122,113.976,132.562,86.706
		c12.69-5.565,26.38-8.348,39.959-8.348c13.579,0,27.27,2.783,39.959,8.348c62.329,27.27,132.562-18.588,132.562-86.706
		C428.522,375.941,422.845,357.687,412.718,342.549z"/>
	<path style="fill:#6E6057;" d="M178.087,166.911c-30.684,0-55.652-24.968-55.652-55.652c0-25.843,19.501-89.043,55.652-89.043
		s55.652,63.201,55.652,89.043C233.739,141.944,208.771,166.911,178.087,166.911z"/>
</g>
<path style="fill:#615349;" d="M333.913,166.911c-30.684,0-55.652-24.968-55.652-55.652c0-25.843,19.5-89.043,55.652-89.043
	s55.652,63.201,55.652,89.043C389.565,141.944,364.597,166.911,333.913,166.911z"/>
<path style="fill:#6E6057;" d="M55.652,300.476C24.968,300.476,0,275.509,0,244.824c0-25.843,19.501-89.043,55.652-89.043
	s55.652,63.201,55.652,89.043C111.304,275.51,86.337,300.476,55.652,300.476z"/>
<g>
	<path style="fill:#615349;" d="M456.348,300.476c-30.684,0-55.652-24.968-55.652-55.652c0-25.843,19.5-89.043,55.652-89.043
		S512,218.981,512,244.824C512,275.51,487.032,300.476,456.348,300.476z"/>
	<path style="fill:#615349;" d="M428.522,395.085c0,68.118-70.234,113.976-132.562,86.706c-12.69-5.565-26.38-8.348-39.959-8.348
		V178.042c51.311,0,94.609,45.857,94.609,100.174c0,13.023,7.791,24.598,19.812,29.607c17.586,7.346,32.166,19.478,42.296,34.727
		C422.845,357.687,428.522,375.941,428.522,395.085z"/>
</g>
<g>
</g>
<g>
</g>
<g>
</g>
<g>
</g>
<g>
</g>
<g>
</g>
<g>
</g>
<g>
</g>
<g>
</g>
<g>
</g>
<g>
</g>
<g>
</g>
<g>
</g>
<g>
</g>
<g>
</g>
</svg>
